<svg width="351" height="603" viewBox="0 0 351 603" fill="none" xmlns="http://www.w3.org/2000/svg">
<path d="M247.523 298.853V269.438L258.106 50.0049L252.814 35.8859L239.879 28.8263H230.472L221.653 30.5912L213.422 38.8273L209.307 50.0049L202.251 241.2L196.372 247.083H188.141L184.613 241.2V22.9434L179.91 8.82439L165.799 0H149.925L138.754 8.82439L134.05 22.9434V194.725V245.318L128.171 250.024H121.116V245.318L117 140.602L112.884 78.8312V44.7102L108.181 34.7093L97.598 28.8263H84.0754L71.1407 34.7093L65.8492 44.7102V78.8312V114.129L71.1407 250.024L65.8492 257.672H54.6784L49.3869 250.024V233.552L44.6834 170.017L39.392 130.013L32.3367 117.07L21.7538 114.129L11.7588 117.659L4.11558 124.718L0 135.896L4.11558 181.782L11.7588 278.262L16.4623 368.271L23.5176 430.042L35.8643 471.811L54.6784 508.873V513.579V571.232L58.206 578.88L65.8492 593.587L81.7236 603H198.136L215.774 598.294L225.181 587.116L230.472 574.174V513.579L239.879 508.873L262.809 480.047L283.975 447.102L305.729 413.57L313.372 385.332L325.131 334.739L336.301 298.853L340.417 287.087L344.533 269.438L349.236 250.024L351 233.552L346.884 222.375L340.417 215.903L332.774 212.962H325.131L313.372 217.668L305.729 222.375L299.261 233.552L290.442 269.438L283.975 298.853L273.98 334.739L262.809 342.386H253.402L247.523 334.739V298.853Z" fill="#C3C3C3"/>
</svg>
