<svg width="351" height="603" viewBox="0 0 351 603" fill="none" xmlns="http://www.w3.org/2000/svg">
<path d="M103.477 298.853V269.438L92.8945 50.0049L98.1859 35.8859L111.121 28.8263H120.528L129.347 30.5912L137.578 38.8273L141.693 50.0049L148.749 241.2L154.628 247.083H162.859L166.387 241.2V22.9434L171.09 8.82439L185.201 0H201.075L212.246 8.82439L216.95 22.9434V194.725V245.318L222.829 250.024H229.884V245.318L234 140.602L238.116 78.8312V44.7102L242.819 34.7093L253.402 28.8263H266.925L279.859 34.7093L285.151 44.7102V78.8312V114.129L279.859 250.024L285.151 257.672H296.322L301.613 250.024V233.552L306.317 170.017L311.608 130.013L318.663 117.07L329.246 114.129L339.241 117.659L346.884 124.718L351 135.896L346.884 181.782L339.241 278.262L334.538 368.271L327.482 430.042L315.136 471.811L296.322 508.873V513.579V571.232L292.794 578.88L285.151 593.587L269.276 603H152.864L135.226 598.294L125.819 587.116L120.528 574.174V513.579L111.121 508.873L88.1909 480.047L67.0251 447.102L45.2714 413.57L37.6281 385.332L25.8694 334.739L14.6985 298.853L10.5829 287.087L6.46735 269.438L1.76382 250.024L0 233.552L4.1156 222.375L10.5829 215.903L18.2261 212.962H25.8694L37.6281 217.668L45.2714 222.375L51.7387 233.552L60.5578 269.438L67.0251 298.853L77.0201 334.739L88.1909 342.386H97.598L103.477 334.739V298.853Z" fill="#C3C3C3"/>
</svg>
